<svg width="150" height="150" viewBox="0 0 150 150" fill="none" xmlns="http://www.w3.org/2000/svg">
<g clip-path="url(#clip0_1070_3374)">
<path d="M75 31.71C81.8687 27.7379 89.5848 25.4593 97.5095 25.0628C105.434 24.6663 113.339 26.1633 120.57 29.43C116.61 20.6609 110.205 13.2204 102.122 8.0013C94.0388 2.78218 84.6216 0.00608063 75 0.00608063C65.3784 0.00608063 55.9611 2.78218 47.8781 8.0013C39.795 13.2204 33.3895 20.6609 29.43 29.43C36.6609 26.1633 44.5659 24.6663 52.4905 25.0628C60.4151 25.4593 68.1313 27.7379 75 31.71Z" fill="#FF7151"/>
<path d="M75 118.29C68.1313 122.262 60.4151 124.541 52.4905 124.937C44.5659 125.334 36.6609 123.837 29.43 120.57C33.3895 129.339 39.795 136.78 47.8781 141.999C55.9611 147.218 65.3784 149.994 75 149.994C84.6216 149.994 94.0388 147.218 102.122 141.999C110.205 136.78 116.61 129.339 120.57 120.57C113.339 123.837 105.434 125.334 97.5095 124.937C89.5848 124.541 81.8687 122.262 75 118.29Z" fill="#FF7151"/>
<path d="M31.71 75C27.7379 68.1313 25.4593 60.4152 25.0628 52.4905C24.6663 44.5659 26.1633 36.6609 29.43 29.43C20.6609 33.3895 13.2204 39.795 8.0013 47.8781C2.78218 55.9611 0.00608826 65.3784 0.00608826 75C0.00608826 84.6216 2.78218 94.0388 8.0013 102.122C13.2204 110.205 20.6609 116.611 29.43 120.57C26.1633 113.339 24.6663 105.434 25.0628 97.5095C25.4593 89.5849 27.7379 81.8687 31.71 75Z" fill="#FF7151"/>
<path d="M31.71 75C36.9265 65.9826 44.8222 58.8139 54.3 54.49L54.39 54.21L54.55 54.16C58.8887 44.7471 66.0315 36.9057 75 31.71C68.1313 27.7379 60.4152 25.4593 52.4905 25.0628C44.5659 24.6663 36.6609 26.1633 29.43 29.43C26.1633 36.6609 24.6663 44.5659 25.0628 52.4905C25.4593 60.4152 27.7379 68.1313 31.71 75Z" fill="#FF392A"/>
<path d="M75 118.29C66.0569 113.116 58.9291 105.307 54.59 95.93L54.39 95.86L54.27 95.5C44.8032 91.1758 36.9182 84.0107 31.71 75C27.7379 81.8687 25.4593 89.5849 25.0628 97.5095C24.6663 105.434 26.1633 113.339 29.43 120.57C36.6609 123.837 44.5659 125.334 52.4905 124.937C60.4152 124.541 68.1313 122.262 75 118.29Z" fill="#FF392A"/>
<path d="M50 75.85C50 75.59 50 75.33 50 75.08V75C50.0036 68.287 51.3642 61.6439 54 55.47C54.11 55.14 54.22 54.82 54.34 54.47C44.8445 58.7923 36.9337 65.9689 31.71 75C36.9181 84.0107 44.8032 91.1758 54.27 95.5C54.08 94.98 53.91 94.5 53.74 93.98C51.3732 88.2229 50.1047 82.0737 50 75.85Z" fill="#FF2122"/>
<path d="M150 75C149.999 65.3777 147.222 55.96 142.002 47.8769C136.782 39.7938 129.34 33.3886 120.57 29.43C123.837 36.6609 125.334 44.5659 124.937 52.4905C124.541 60.4152 122.262 68.1313 118.29 75C122.262 81.8687 124.541 89.5849 124.937 97.5095C125.334 105.434 123.837 113.339 120.57 120.57C129.34 116.611 136.782 110.206 142.002 102.123C147.222 94.04 149.999 84.6223 150 75Z" fill="#FF7151"/>
<path d="M75 31.71C83.9483 36.8824 91.0775 44.6962 95.41 54.08L95.79 54.21C95.79 54.34 95.87 54.46 95.92 54.59C105.304 58.9225 113.118 66.0517 118.29 75C122.262 68.1313 124.541 60.4152 124.937 52.4905C125.334 44.5659 123.837 36.6609 120.57 29.43C113.339 26.1633 105.434 24.6663 97.5095 25.0628C89.5849 25.4593 81.8687 27.7379 75 31.71Z" fill="#FF392A"/>
<path d="M118.29 75C113.116 83.9431 105.307 91.0709 95.93 95.41C95.88 95.56 95.84 95.71 95.79 95.86L95.38 96C91.0347 105.345 83.9195 113.127 75 118.29C81.8687 122.262 89.5849 124.541 97.5095 124.937C105.434 125.334 113.339 123.837 120.57 120.57C123.837 113.339 125.334 105.434 124.937 97.5095C124.541 89.5849 122.262 81.8687 118.29 75Z" fill="#FF392A"/>
<path d="M95.92 54.59C96.5866 56.41 97.1633 58.1567 97.65 59.83C98.5093 62.5416 99.1349 65.3217 99.52 68.14C99.8445 70.3248 100.002 72.5312 99.99 74.74C99.99 74.83 99.99 74.91 99.99 75C99.997 80.9578 98.9335 86.8684 96.85 92.45C96.56 93.45 96.25 94.45 95.92 95.45C105.306 91.102 113.119 83.9595 118.29 75C113.118 66.0517 105.304 58.9225 95.92 54.59Z" fill="#FF2122"/>
<path d="M75 50H75.26C76.8433 49.9904 78.4258 50.0706 80 50.24H80.13L80.64 50.3C84.0916 50.6942 87.4931 51.4448 90.79 52.54C92.27 52.9867 93.81 53.4933 95.41 54.06C91.0741 44.6836 83.9453 36.8771 75 31.71C66.0316 36.9057 58.8888 44.7471 54.55 54.16L56.84 53.42C62.6268 51.1566 68.7863 49.9966 75 50Z" fill="#FF2122"/>
<path d="M75 100H74.94C74.36 100 73.79 100 73.21 100C68.2037 99.8277 63.2518 98.904 58.52 97.26C57.25 96.87 55.95 96.45 54.59 95.98C58.9376 105.338 66.0646 113.129 75 118.29C83.9195 113.127 91.0347 105.345 95.38 96C93.94 96.47 92.56 96.9 91.22 97.29C86.0012 99.0872 80.5196 100.003 75 100Z" fill="#FF2122"/>
<path d="M73.21 100C68.2142 99.7363 63.2749 98.815 58.52 97.26C63.2518 98.904 68.2037 99.8277 73.21 100Z" fill="#E52D1F" fill-opacity="0.5"/>
<path d="M53.74 94C51.37 87.1 50.13 81.46 50 75.85C50.1022 82.0805 51.3708 88.2367 53.74 94Z" fill="#E52D1F" fill-opacity="0.5"/>
<path d="M50 75V75.08C50 69.08 51.32 63.08 54 55.47C51.3642 61.6439 50.0037 68.287 50 75Z" fill="#E52D1F" fill-opacity="0.5"/>
<path d="M75 100C80.5196 100.003 86.0012 99.0872 91.22 97.29C85.9528 98.9754 80.4691 99.8883 74.94 100H75Z" fill="#E52D1F" fill-opacity="0.5"/>
<path d="M80.64 50.32C84.0822 50.7694 87.4784 51.5189 90.79 52.56C87.4931 51.4648 84.0916 50.7142 80.64 50.32Z" fill="#E52D1F" fill-opacity="0.5"/>
<path d="M75 50C68.7863 49.9966 62.6268 51.1566 56.84 53.42C63.93 51.16 69.66 50 75.26 50H75Z" fill="#E52D1F" fill-opacity="0.5"/>
<path d="M97.65 59.83C98.4712 62.5517 99.0961 65.3289 99.52 68.14C99.1349 65.3217 98.5093 62.5416 97.65 59.83Z" fill="#E52D1F" fill-opacity="0.5"/>
<path d="M100 75C100 74.91 100 74.83 100 74.74C100 80.13 98.92 85.68 96.87 92.45C98.9501 86.8678 100.01 80.9572 100 75Z" fill="#E52D1F" fill-opacity="0.5"/>
<path d="M54.55 54.16L54.39 54.21L54.3 54.49L54.43 54.43L54.55 54.16Z" fill="#FF392A"/>
<path d="M54.27 95.5L54.39 95.86L54.59 95.93L54.43 95.57L54.27 95.5Z" fill="#FF392A"/>
<path d="M54.43 54.43L54.3 54.49C54.18 54.82 54.07 55.14 53.96 55.49C54.11 55.12 54.27 54.78 54.43 54.43Z" fill="#FF2122"/>
<path d="M53.74 94C53.91 94.5 54.08 95 54.27 95.52L54.43 95.59C54.19 95 54 94.52 53.74 94Z" fill="#FF2122"/>
<path d="M95.92 54.59C95.92 54.46 95.83 54.34 95.79 54.21L95.41 54.08C95.47 54.2 95.52 54.31 95.57 54.43L95.92 54.59Z" fill="#FF392A"/>
<path d="M95.38 96L95.79 95.86C95.79 95.71 95.88 95.56 95.93 95.41L95.57 95.57L95.38 96Z" fill="#FF392A"/>
<path d="M99.52 68.14C99.8236 70.3271 99.9806 72.532 99.99 74.74C100.002 72.5312 99.8445 70.3248 99.52 68.14Z" fill="white"/>
<path d="M97.65 59.83C97.15 58.1567 96.5733 56.41 95.92 54.59L95.57 54.43C96.3666 56.1885 97.0611 57.9915 97.65 59.83Z" fill="#FF2122"/>
<path d="M95.57 95.57L95.93 95.41C96.26 94.41 96.57 93.41 96.86 92.41C96.47 93.51 96 94.55 95.57 95.57Z" fill="#FF2122"/>
<path d="M56.84 53.42L54.55 54.16L54.43 54.43C55.22 54.07 56 53.73 56.84 53.42Z" fill="#FF2122"/>
<path d="M95.57 54.43C95.57 54.31 95.47 54.2 95.41 54.08C93.81 53.52 92.27 53.0133 90.79 52.56C92.4147 53.1 94.0102 53.7241 95.57 54.43Z" fill="#FF2122"/>
<path d="M75.26 50C76.8431 49.9991 78.4251 50.0793 80 50.24C78.4258 50.0706 76.8433 49.9904 75.26 50Z" fill="white"/>
<path d="M80.13 50.26C80.3 50.26 80.47 50.31 80.64 50.32L80.13 50.26Z" fill="white"/>
<path d="M91.22 97.29C92.56 96.9 93.94 96.47 95.38 96L95.57 95.57C94.1503 96.2172 92.6984 96.7913 91.22 97.29Z" fill="#FF2122"/>
<path d="M54.43 95.57L54.59 95.93C55.95 96.4 57.25 96.82 58.52 97.21C57.13 96.72 55.76 96.17 54.43 95.57Z" fill="#FF2122"/>
</g>
<defs>
<clipPath id="clip0_1070_3374">
<rect width="150" height="150" fill="white"/>
</clipPath>
</defs>
</svg>
